<svg id="Layer_1" data-name="Layer 1" xmlns="http://www.w3.org/2000/svg" viewBox="0 0 371.57 305.87"><defs><style>.cls-1{fill:#fff;}.cls-2,.cls-3{fill:none;stroke:#000;stroke-linecap:round;stroke-miterlimit:10;}.cls-2{stroke-width:5px;}.cls-3{stroke-width:10px;}</style></defs><title>Untitled-8</title><rect class="cls-1" x="104.96" y="168.91" width="192.63" height="246.05" transform="translate(-180.01 323.64) rotate(-78.97)"/><path d="M102.9,179.73l231.69,45.16L299.65,404.14,68,359,102.9,179.73M95,168,56.23,366.89l251.32,49L346.32,217,95,168Z" transform="translate(-56.23 -110)"/><rect class="cls-1" x="152" y="189" width="264" height="209" transform="translate(-74.64 -90.99) rotate(-3.71)"/><path d="M404.29,186l12.89,198.58L163.71,401,150.82,202.43,404.29,186m9.33-10.63L140.2,193.1l14.18,218.54L427.8,393.9,413.62,175.36Z" transform="translate(-56.23 -110)"/><line class="cls-2" x1="189.27" y1="104.5" x2="252.52" y2="39.61"/><ellipse class="cls-3" cx="261.46" cy="24.33" rx="20.3" ry="19.33"/></svg>